<svg width="61" height="60" viewBox="0 0 61 60" fill="none" xmlns="http://www.w3.org/2000/svg">
<path d="M54.2545 5.95494C50.3768 2.12447 45.2713 0 39.8103 0C34.3493 0 29.2438 2.12447 25.3661 5.95494C22.361 8.94851 20.3898 12.7468 19.6789 16.8348C19.6143 17.2532 19.5497 17.6717 19.5174 18.0902C19.4851 18.5086 19.4527 18.9271 19.4204 19.3455C19.3881 19.6674 19.3881 20.0215 19.3881 20.3434V23.1116V24.367V25.6224V40.7189H34.5432H35.8034H37.0636C37.096 40.3649 37.096 40.043 37.096 39.6889V36.9528H35.8357H23.1688V25.5902V23.1116V20.3756C23.1688 20.0215 23.1688 19.6996 23.2011 19.3455C23.2334 18.9271 23.2658 18.5086 23.3304 18.0902C23.395 17.6717 23.4596 17.2532 23.5566 16.8348C24.2352 13.6803 25.8508 10.8477 28.0482 8.62662C31.0533 5.63305 35.2218 3.7661 39.8103 3.7661C48.9874 3.7661 56.4518 11.2017 56.4518 20.3434C56.4518 24.9142 54.5776 29.0666 51.5724 32.0601C49.3428 34.2812 46.4992 35.8584 43.3325 36.5344V36.8885V39.6567C43.3325 39.9142 43.3325 40.1395 43.3325 40.3971C47.4363 39.6889 51.2493 37.7254 54.2545 34.7318C58.0998 30.9013 60.2325 25.7833 60.2325 20.3434C60.2325 14.9035 58.0998 9.78542 54.2545 5.95494Z" fill="#F7654A"/>
<path d="M23.1688 23.0793H24.4291H25.6893H37.096V34.442V35.6974V36.9527V39.6888C37.096 40.0429 37.096 40.3648 37.0637 40.7188C37.0314 41.1373 36.999 41.5558 36.9344 41.9742C36.8698 42.3927 36.8052 42.8111 36.7082 43.2296C36.0296 46.3841 34.414 49.2167 32.2166 51.4377C29.2115 54.4313 25.043 56.2983 20.4545 56.2983C11.2774 56.2983 3.813 48.8626 3.813 39.721C3.813 35.1502 5.68719 30.9978 8.69235 28.0042C10.922 25.7832 13.7656 24.2059 16.9323 23.53V20.4077C16.9323 20.1501 16.9323 19.9248 16.9323 19.6673C12.8285 20.3755 9.01549 22.339 6.01033 25.3326C2.1327 29.0987 0 34.2167 0 39.6566C0 45.0965 2.1327 50.1824 5.97801 54.045C9.82333 57.8755 14.9612 60 20.4222 60C25.8832 60 30.9887 57.8755 34.8663 54.045C38.4855 50.4399 40.5859 45.7081 40.812 40.6545C40.812 40.4935 40.812 40.3326 40.8444 40.1716C40.8444 40.0751 40.8444 40.0107 40.8444 39.9141C40.8444 39.8176 40.8444 39.7532 40.8444 39.6566V36.8884V19.3132H25.6893H24.4291H23.1688C23.1365 19.6673 23.1365 19.9892 23.1365 20.3433L23.1688 23.0793Z" fill="#F7654A"/>
</svg>
